<?xml version="1.0" encoding="iso-8859-1"?>
<!-- Generator: Adobe Illustrator 18.0.0, SVG Export Plug-In . SVG Version: 6.00 Build 0)  -->
<!DOCTYPE svg PUBLIC "-//W3C//DTD SVG 1.1//EN" "http://www.w3.org/Graphics/SVG/1.1/DTD/svg11.dtd">
<svg version="1.1" id="Capa_1" xmlns="http://www.w3.org/2000/svg" xmlns:xlink="http://www.w3.org/1999/xlink" x="0px" y="0px"
	 viewBox="0 0 37 37" style="enable-background:new 0 0 37 37;" xml:space="preserve">
<g id="Shape_10">
	<g>
		<path style="fill-rule:evenodd;clip-rule:evenodd;" d="M18.5,0C8.299,0,0,8.299,0,18.5C0,28.701,8.299,37,18.5,37
			C28.701,37,37,28.701,37,18.5C37,8.299,28.701,0,18.5,0z M18.5,36C8.851,36,1,28.149,1,18.5C1,8.851,8.851,1,18.5,1
			C28.149,1,36,8.851,36,18.5C36,28.149,28.149,36,18.5,36z M26.985,10.016L18.5,18.501l-8.485-8.485l-0.707,0.707l8.485,8.485
			l-7.778,7.777l0.707,0.707l7.778-7.777l7.778,7.778l0.707-0.707l-7.778-7.778l8.485-8.485L26.985,10.016z"/>
	</g>
</g>
<g>
</g>
<g>
</g>
<g>
</g>
<g>
</g>
<g>
</g>
<g>
</g>
<g>
</g>
<g>
</g>
<g>
</g>
<g>
</g>
<g>
</g>
<g>
</g>
<g>
</g>
<g>
</g>
<g>
</g>
</svg>
